<svg width="98" height="98" viewBox="0 0 98 98" fill="none" xmlns="http://www.w3.org/2000/svg">
<path fill-rule="evenodd" clip-rule="evenodd" d="M49.0001 22.125C38.7211 22.125 30.3751 30.4921 30.3751 40.8296C30.3751 43.2713 31.4835 46.6158 33.389 50.4519C35.263 54.2248 37.7822 58.23 40.3325 61.9168C42.8778 65.5966 45.4272 68.9209 47.3424 71.3272C47.972 72.1183 48.5322 72.8092 49.0001 73.3797C49.4681 72.8092 50.0283 72.1183 50.6579 71.3272C52.573 68.9209 55.1224 65.5966 57.6678 61.9168C60.218 58.23 62.7372 54.2248 64.6113 50.4519C66.5167 46.6158 67.6251 43.2713 67.6251 40.8296C67.6251 30.4921 59.2792 22.125 49.0001 22.125ZM49.0001 76.5C47.4842 77.8046 47.484 77.8044 47.4837 77.804L47.4827 77.8028L47.4792 77.7988L47.4668 77.7843L47.42 77.7297C47.3793 77.6819 47.3196 77.6119 47.2423 77.5205C47.0876 77.3379 46.8622 77.0702 46.5762 76.7262C46.0042 76.0385 45.1894 75.0455 44.2126 73.8181C42.2605 71.3654 39.6537 67.9669 37.0428 64.1924C34.4368 60.4249 31.7997 56.2441 29.8066 52.2313C27.8448 48.2818 26.3751 44.2411 26.3751 40.8296C26.3751 28.2975 36.4974 18.125 49.0001 18.125C61.5028 18.125 71.6251 28.2975 71.6251 40.8296C71.6251 44.2411 70.1554 48.2818 68.1937 52.2313C66.2005 56.2441 63.5635 60.4249 60.9575 64.1924C58.3466 67.9669 55.7397 71.3654 53.7877 73.8181C52.8108 75.0455 51.996 76.0385 51.4241 76.7262C51.1381 77.0702 50.9127 77.3379 50.758 77.5205C50.6806 77.6119 50.621 77.6819 50.5802 77.7297L50.5334 77.7843L50.521 77.7988L50.5176 77.8028L50.5165 77.804C50.5162 77.8044 50.516 77.8046 49.0001 76.5ZM49.0001 76.5L50.516 77.8046L49.0001 79.566L47.4842 77.8046L49.0001 76.5ZM49.0001 33.2736C44.8546 33.2736 41.4809 36.6493 41.4809 40.8296C41.4809 45.01 44.8546 48.3856 49.0001 48.3856C53.1456 48.3856 56.5194 45.01 56.5194 40.8296C56.5194 36.6493 53.1456 33.2736 49.0001 33.2736ZM37.4809 40.8296C37.4809 34.4547 42.631 29.2736 49.0001 29.2736C55.3693 29.2736 60.5194 34.4547 60.5194 40.8296C60.5194 47.2046 55.3693 52.3856 49.0001 52.3856C42.631 52.3856 37.4809 47.2046 37.4809 40.8296Z" fill="#225019"/>
</svg>
