<svg width="106" height="43" viewBox="0 0 106 43" fill="none" xmlns="http://www.w3.org/2000/svg">
<g clip-path="url(#clip0_74_327)">
<path d="M86.9179 37.6995C88.2399 34.0929 89.7225 30.5541 91.1409 26.9797C91.3053 25.6964 93.231 27.3514 93.2953 26.3327C93.3632 25.6893 93.5204 25.4105 92.6308 25.0888C92.0698 24.885 92.0913 24.6348 92.1449 24.2631C93.549 20.6457 95.221 17.0677 96.0963 13.2859C94.5708 13.1357 92.2735 14.973 90.4585 15.3734C89.8226 15.4985 90.2442 16.4135 90.7979 16.0704C94.3207 15.1482 91.2195 20.3455 90.7479 21.8396C90.0977 23.5374 90.0155 24.5169 87.7575 24.9887C84.5528 25.6571 81.6946 27.6302 79.2186 29.7749C71.7302 36.0338 70.2939 48.5409 81.9018 37.7924C84.2062 35.8658 87.6896 31.2047 86.1819 28.7097C85.8533 28.1628 85.8282 30.404 84.0776 33.2529C83.3738 34.3895 80.8335 37.5958 79.8653 38.4859C71.9231 44.9485 75.6602 31.5621 85.7854 26.9439C86.8286 26.4685 89.4224 25.8501 89.0544 26.5293C87.0644 30.6864 83.5988 40.3267 83.1308 41.9066C83.0987 42.0103 83.0951 42.1211 83.2773 42.0639C85.646 41.1917 88.4042 40.0479 89.3688 39.358C89.9369 38.9541 89.794 38.8255 88.2077 39.358C86.232 40.0229 86.3784 39.1829 86.9144 37.6888L86.9179 37.6995Z" fill="#225019"/>
<path d="M62.2338 33.0026C62.1338 33.6532 61.7622 34.2037 61.4371 34.7255C60.7047 35.9051 60.0473 37.1383 58.9897 38.1106C58.3645 38.686 57.7714 39.2866 57.0462 39.7262C56.5888 40.005 56.0744 40.1766 55.5635 40.3374C55.1347 40.4697 54.6881 40.4304 54.2523 40.3946C53.7664 40.3553 53.3233 40.1158 53.1626 39.644C53.034 39.2687 52.9625 38.8612 52.9482 38.443C52.9196 37.5458 53.0411 36.6665 53.2233 35.8015C53.3912 35.0043 53.5699 34.1786 53.9807 33.478C54.3737 32.806 54.6167 32.0661 55.0275 31.4013C55.4599 30.7043 55.8707 29.9965 56.3638 29.3424C57.0354 28.4488 57.7643 27.6016 58.6789 26.9368C59.0255 26.6866 59.3792 26.4292 59.765 26.2576C60.4724 25.9395 61.2334 25.843 62.0087 25.8966C62.3481 25.918 62.6947 25.9502 62.8912 26.3077C63.0948 26.683 62.9984 27.044 62.9055 27.4265C62.7125 28.2129 62.1445 28.7383 61.5943 29.2423C60.9262 29.8571 60.083 30.2539 59.2148 30.4683C58.2466 30.7078 57.2355 30.8401 56.2244 30.6185C56.1387 30.6006 56.0422 30.597 55.9743 30.6721C55.9029 30.7543 55.9493 30.8401 55.9922 30.9187C56.0494 31.026 56.0958 31.1511 56.1851 31.2261C56.6531 31.63 57.2212 31.7194 57.8072 31.6229C59.029 31.4263 60.1544 30.9116 61.2477 30.3861C62.0087 30.0215 62.784 29.6033 63.4021 28.9671C63.695 28.6632 64.0059 28.3701 64.2738 28.0449C64.8097 27.3943 65.3457 26.733 65.5314 25.8752C65.6815 25.1889 65.3278 24.499 64.6883 24.3095C64.2845 24.1916 63.8558 24.2094 63.4378 24.2702C62.934 24.3417 61.2977 24.4382 58.4288 26.2076C57.7714 26.5793 55.1347 28.8527 54.5417 29.6391C54.1129 30.211 51.8407 33.0205 51.0868 35.637C50.9153 36.1124 50.8188 36.6379 50.6867 37.1383C50.3687 38.35 50.3258 39.5582 50.6402 40.77C50.7831 41.3204 51.169 41.7315 51.6191 42.0032C52.0979 42.2927 52.6588 42.3034 53.2447 42.2426C54.4488 42.1175 55.5242 41.6886 56.496 41.0202C57.6607 40.2231 58.8218 39.4152 59.8115 38.3894C60.3545 37.8282 60.9869 37.3563 61.4228 36.6879C61.9194 35.9301 62.5089 35.2367 62.6447 34.2823C62.7233 33.7354 62.7197 33.2386 62.3838 32.7846C62.2838 32.8311 62.2481 32.924 62.2374 33.0026H62.2338Z" fill="#225019"/>
<path d="M77.4751 8.75702C77.4823 9.2646 77.4751 9.78647 77.8253 10.2369C78.3112 10.8552 78.9578 11.1626 79.701 11.3199C80.0332 11.3914 80.3691 11.4557 80.7013 11.5272C80.8478 11.5594 80.9228 11.638 80.9228 11.806C80.9228 12.428 80.905 12.3744 81.4873 12.3744C81.5659 12.3744 81.7196 12.3815 81.7982 12.3958C81.9768 12.428 82.0375 12.5031 82.0518 12.6961C82.0661 12.9034 81.9232 12.9999 81.741 13.0178C81.5195 13.0357 81.298 13.0285 81.0765 13.0178C80.9907 13.0178 80.88 12.9892 80.8728 12.8784C80.8514 12.5209 80.9086 12.5102 80.4298 12.5209C80.0547 12.5317 79.7188 12.5209 79.3258 12.5317C79.1472 12.5388 79.0471 12.5066 79.0579 12.8283C79.0686 13.1214 79.3258 13.6076 80.4369 13.6362C80.9443 13.6433 82.7807 13.5754 83.1022 13.5254C84.2205 13.4003 83.9918 13.0607 83.949 12.6103C83.8954 12.2636 83.5631 12.1277 83.1665 12.0455C82.9522 11.9991 82.427 11.9669 82.2055 11.9526C82.0626 11.9419 82.0804 11.8203 82.0733 11.6881C82.0626 11.5308 82.1304 11.5809 82.2662 11.563C82.7485 11.4986 83.2273 11.4236 83.6774 11.2591C84.2098 11.0697 84.7135 10.8052 85.1351 10.4049C85.6853 9.77932 85.7175 8.67481 85.6925 8.24587C85.6782 7.97779 85.6996 7.74902 85.621 7.49881C85.6067 7.45234 85.5639 7.42017 85.5138 7.42017C85.203 7.4166 84.049 7.4023 83.4381 7.39515C83.1737 7.39157 83.0701 7.48808 83.0629 7.73115C83.0558 8.0314 83.0236 8.33166 83.0415 8.62834C83.0915 9.59345 82.5663 9.93302 81.6874 9.96877C81.4195 9.97949 81.1622 9.9223 80.905 9.85081C80.4905 9.73643 80.2833 9.52196 80.2726 9.08587C80.219 7.06987 80.1833 5.05745 80.2369 3.04145C80.2476 2.63753 80.5477 2.29796 80.9443 2.24077C81.4159 2.17285 81.8839 2.14068 82.3591 2.28366C82.6521 2.36945 82.8128 2.52672 82.895 2.79481C82.9557 2.90919 82.9665 3.86715 82.97 3.94579C83.0022 4.53557 83.0486 4.40689 83.8668 4.41047C84.467 4.3926 84.7707 4.41047 85.2673 4.3926C85.9318 4.35685 85.8532 4.47838 85.6996 3.34528C85.6603 2.90562 85.5317 2.09421 85.153 1.68315C84.8422 1.34357 83.8382 0.635829 82.3734 0.56434C81.791 0.56434 80.2011 0.478553 78.8685 0.989702C78.5112 1.19345 77.4644 1.75106 77.4644 3.39532C77.4716 3.72774 77.4716 4.06017 77.4716 4.3926C77.4716 5.84383 77.4537 7.29864 77.4716 8.74987L77.4751 8.75702Z" fill="#225019"/>
<path d="M69.047 11.4236C69.3007 11.4272 69.34 11.4414 69.3579 11.3628C69.4793 10.9124 69.6151 10.2654 69.7759 9.63992C69.8187 9.47549 69.8473 9.45762 70.0617 9.45762C71.0192 9.45405 72.0481 9.46119 73.0056 9.46834C73.1021 9.46834 73.1593 9.48264 73.1914 9.61132C73.3165 10.1296 73.4094 10.5657 73.5237 11.0375C73.5808 11.2699 73.6559 11.395 73.9345 11.3986C74.5669 11.4057 75.1814 11.3843 75.8174 11.3878C76.582 11.395 76.3962 11.3628 75.8317 9.11804C75.578 8.11362 73.6845 0.950386 73.638 0.768088C73.6201 0.693025 73.5737 0.68945 73.488 0.693025C73.4451 0.693025 70.3868 0.72162 69.7437 0.725195C69.6437 0.725195 69.658 0.725195 69.6365 0.778812C69.4543 1.42936 66.9784 10.7194 66.8462 11.2556C66.8069 11.4129 66.7962 11.4021 66.982 11.3986C67.2142 11.395 67.768 11.3986 69.0506 11.4236H69.047ZM70.2046 7.724C70.4082 7.0377 70.594 6.28349 70.7548 5.58647C70.9442 4.77864 71.1514 4.0566 71.3765 3.17728C71.5229 2.60894 71.5908 3.16298 71.6194 3.29524C71.7409 3.90647 71.9231 4.49268 72.0624 5.09319C72.2446 5.89388 72.4519 6.68741 72.6698 7.47736C72.8341 8.08502 72.8806 8.03856 72.5912 8.04213C72.0624 8.04928 70.8691 8.05285 70.3475 8.04213C70.0938 8.03856 70.0938 8.09575 70.2046 7.72043V7.724Z" fill="#225019"/>
<path d="M76.6891 26.6151C77.0428 26.7116 77.1071 26.6008 77.175 26.3827C77.3394 25.8609 77.5502 25.3569 77.7538 24.8493C77.836 24.642 77.8395 24.4382 77.5716 24.3739C76.7677 24.1737 75.9746 24.2523 75.3243 24.7492C74.9349 25.0459 72.802 26.4221 70.7583 28.6883C70.4618 28.9992 70.1939 29.3317 69.9045 29.6462C69.8116 29.7463 69.6865 29.9393 69.5686 29.8535C69.4293 29.757 69.5579 29.5747 69.6294 29.4389C69.7365 29.2244 70.1796 27.7982 70.3582 27.3514C70.6905 26.5186 70.7941 26.0432 70.887 25.2246C70.887 25.1102 70.9013 24.2595 70.7119 24.2238C70.544 24.1916 70.4475 24.2952 70.2546 24.4203C70.1939 24.4597 67.7251 26.2183 65.7529 27.1334C65.535 27.2406 65.4207 27.4872 65.5243 27.6767C65.6457 27.8947 65.8137 27.8947 66.0209 27.7875C66.2853 27.6517 66.5532 27.523 66.8283 27.4158C67.207 27.2656 67.6 27.4265 67.6358 27.7232C67.7322 28.5024 67.5036 29.2316 67.2928 29.9608C67.1534 30.4469 66.9748 30.9187 66.8462 31.4084C66.6604 32.1055 66.4532 32.7989 66.1459 33.4495C65.7779 34.2251 65.5421 35.0437 65.242 35.8408C64.9455 36.6307 64.6061 37.4028 64.3595 38.2142C64.1452 38.9184 63.1841 41.1775 63.0519 41.6314C62.9662 41.9209 63.0126 41.9638 63.3199 41.9638C63.5378 41.9638 64.6632 41.5563 65.0562 41.4777C65.4993 41.3883 65.6422 41.2632 65.7601 40.7878C65.9351 40.0872 66.1959 39.3902 66.446 38.6968C66.9498 37.2884 67.4035 35.8622 68.018 34.4932C68.2467 33.9821 68.4182 33.4352 68.704 32.9562C69.122 32.2556 69.5472 31.555 69.9831 30.8651C70.6083 29.875 71.3657 29.0028 72.1732 28.1735C72.8127 27.5158 73.563 26.994 74.4454 26.6687C75.1957 26.3935 75.971 26.4185 76.6998 26.6186L76.6891 26.6151Z" fill="#225019"/>
<path d="M58.6574 11.3807C58.8575 11.3878 60.6081 11.395 60.7761 11.3986C61.2262 11.4021 61.1762 11.4236 61.1583 10.6229C61.1369 9.68281 61.1834 8.7463 61.1583 7.80979C61.1476 7.42017 61.1905 7.33081 61.5835 7.32724C62.173 7.32009 62.7625 7.31294 63.352 7.31651C64.1059 7.32009 64.8061 7.13421 65.4457 6.7446C66.0173 6.39787 66.4746 5.94749 66.5175 5.22187C66.5639 4.42477 66.5639 3.70987 66.4853 2.93779C66.4389 2.48383 66.5211 0.621534 61.2905 0.714471C60.5117 0.678726 59.7328 0.710896 58.954 0.710896C58.5395 0.714471 58.4573 0.778811 58.4573 1.18987C58.4573 3.58834 58.4645 5.98324 58.4573 8.37813C58.4502 9.29677 58.4359 10.2333 58.4359 11.1483C58.4359 11.3986 58.5181 11.3771 58.661 11.3843L58.6574 11.3807ZM61.1583 4.7429C61.1583 4.7429 61.1691 3.31311 61.1548 2.60536C61.1476 2.33728 61.2691 2.23362 61.5514 2.24792C62.1444 2.27294 62.7554 2.21217 63.3627 2.348C63.72 2.43022 63.8129 2.79481 63.8236 3.13439C63.8379 3.64553 63.8343 4.15668 63.8486 4.66426C63.8772 5.46136 63.8736 5.67583 63.1234 5.82953C62.641 5.92962 61.8943 5.9189 61.4049 5.90817C61.2262 5.9046 61.1476 5.82953 61.1548 5.64009C61.1691 5.34341 61.1548 5.04315 61.1548 4.7429H61.1583Z" fill="#225019"/>
<path d="M49.0181 10.2011C49.3183 10.555 49.697 10.8481 50.1257 11.059C50.851 11.4164 51.6227 11.5487 52.4301 11.5594C53.5841 11.5773 54.6774 11.3914 55.7063 10.8231C56.4816 10.3941 56.771 9.70426 56.7889 8.91787C56.821 7.69183 56.0172 6.90902 55.1025 6.27277C54.2808 5.70443 53.3447 5.31123 52.498 4.77864C52.0014 4.46766 51.6513 4.0423 51.5512 3.47753C51.4298 2.77336 51.5691 2.26579 52.4337 2.23362C52.7552 2.21932 53.2197 2.23719 53.627 2.25149C54.1558 2.26936 54.1951 2.78766 54.2058 3.28451C54.2129 3.63481 54.2737 3.64196 54.6131 3.63838C54.9311 3.63838 56.1494 3.65626 56.4638 3.65268C56.8282 3.64911 56.8532 3.67413 56.8246 3.31668C56.7996 2.99855 56.7746 2.77336 56.6603 2.52315C56.3387 1.81183 55.4384 0.625107 52.966 0.625107C52.055 0.646554 50.0149 0.700171 49.2539 1.80468C48.8538 2.41234 48.5894 3.0343 48.7466 3.78136C49.0039 5.23617 52.0157 6.91617 52.9517 7.36655C53.7342 7.74187 53.9843 8.24945 54.0236 8.56043C54.1272 9.36468 53.9164 9.99379 52.9267 9.98306C52.7159 9.98306 52.5087 9.99736 52.2908 9.98306C51.8263 9.95447 51.269 9.66136 51.2154 9.04655C51.2011 8.8714 51.2154 8.69268 51.2154 8.51396C51.2154 8.28162 51.0725 8.15651 50.8617 8.15651C50.215 8.15651 49.5719 8.17796 48.9253 8.18511C48.6859 8.18511 48.5751 8.31021 48.593 8.53898C48.6144 8.81421 48.618 9.09302 48.6859 9.35753C48.7609 9.65421 48.8395 9.98306 49.0289 10.2083L49.0181 10.2011Z" fill="#225019"/>
<path d="M39.8255 1.5366C39.8255 3.11294 39.8469 11.2413 39.854 11.3092C39.8648 11.3878 39.9005 11.3735 40.0291 11.3771C40.0755 11.3771 46.9924 11.3878 47.2496 11.3771C47.3354 11.3771 47.3318 11.2985 47.3282 11.2556C47.3211 10.8374 47.3175 10.53 47.3282 10.1225C47.3282 9.99379 47.3497 9.92945 47.1746 9.92945C47.0067 9.92945 42.9302 9.9509 42.8444 9.9509C42.6801 9.9509 42.5908 9.95804 42.5943 9.79004C42.5943 9.70068 42.6086 8.06715 42.58 7.44162C42.5693 7.21643 42.58 7.0663 42.58 6.96621C42.5693 6.75175 42.6444 6.77319 42.7515 6.77319C42.8516 6.77319 43.0016 6.76604 43.2124 6.76604C44.1128 6.76604 45.0167 6.76604 45.917 6.76604C46.2957 6.76604 46.3707 6.69813 46.385 6.32638C46.3957 6.06187 46.385 5.79379 46.4029 5.52928C46.4208 5.30051 46.3207 5.2326 46.1135 5.23975C45.2489 5.26834 43.1302 5.27907 42.7908 5.26834C42.7337 5.26834 42.6729 5.26834 42.6336 5.26834C42.5229 5.26834 42.5586 5.204 42.555 4.81438C42.5515 4.07804 42.5943 3.33813 42.5658 2.60179C42.555 2.34443 42.6515 2.29438 42.8516 2.27651C42.9516 2.26936 43.0516 2.26936 43.1517 2.26936C44.4629 2.26936 45.7777 2.27651 47.0889 2.28009C47.2103 2.28009 47.3532 2.30511 47.3497 2.11566C47.3425 1.75107 47.3425 1.39004 47.3425 1.0183C47.3425 0.725193 47.4068 0.660853 47.071 0.657278C46.4672 0.650129 40.0755 0.653704 39.9326 0.660853C39.8112 0.668002 39.8183 0.700172 39.8255 0.836002C39.8326 0.964682 39.8255 1.50085 39.8255 1.52587V1.5366Z" fill="#225019"/>
<path d="M16.4561 29.539C16.4168 29.1172 16.1238 28.9313 15.8023 28.7597C15.6772 28.6918 15.5379 28.6454 15.4164 28.5739C15.1449 28.413 14.8091 28.3523 14.6304 28.0484C14.5876 27.9769 14.4911 27.9305 14.3946 27.9841C14.3053 28.0341 14.291 28.1199 14.2982 28.2164C14.3446 28.4309 14.366 28.6525 14.4411 28.8598C14.6411 29.4282 15.0234 29.85 15.6022 30.0287C15.9881 30.1502 16.3668 30.2539 16.6419 30.572C16.6848 30.622 16.7276 30.6971 16.7991 30.6614C16.8741 30.6256 16.892 30.5398 16.8777 30.4576C16.8563 30.3611 16.8312 30.236 16.6776 30.0859C16.4954 29.9072 16.4775 29.7785 16.4561 29.5426V29.539Z" fill="#225019"/>
<path d="M17.0313 29.0314C17.2242 28.7669 17.5351 28.6847 17.7816 28.5024C18.046 28.3058 18.2032 28.0663 18.1925 27.7232C18.1817 27.3192 18.171 26.9153 18.0495 26.5257C18.0138 26.4113 18.0353 26.2469 17.8781 26.2469C17.6887 26.2469 17.7316 26.4328 17.7066 26.5543C17.6601 26.8224 17.6565 27.1083 17.385 27.2799C16.9741 27.5373 16.7348 27.8161 16.7598 28.3344C16.7741 28.5882 16.7776 28.8312 16.8348 28.9742C16.8705 29.0564 16.942 29.1494 17.0242 29.035L17.0313 29.0314Z" fill="#225019"/>
<path d="M105.896 24.9351C105.75 24.4918 104.492 23.9807 102.352 24.5204C101.573 24.7706 100.802 25.0459 100.087 25.4712C96.7644 27.187 94.2099 30.4147 93.8205 30.958C93.1024 31.9732 92.57 33.0849 92.0127 34.1894C91.4696 35.2617 90.7658 38.0712 90.8408 40.5555C90.8944 41.5742 91.734 41.9424 92.1413 42.0889C94.1492 42.7359 96.6858 41.2132 97.1539 40.9129C97.5361 40.6663 97.9041 40.3875 98.2757 40.1266C98.8831 39.6976 99.4261 39.1722 99.9942 38.6896C100.873 37.7853 101.938 36.6736 102.399 35.9266C102.92 35.0758 103.188 34.1894 103.117 33.1921C103.095 32.9133 102.613 32.7238 102.584 32.9597C102.306 34.7291 101.58 35.494 101.305 35.9694C100.855 36.7451 99.9192 37.5958 99.2761 38.2249C98.0542 39.2937 95.6461 41.0452 94.0849 40.098C93.6954 39.8227 93.5239 39.4438 93.3917 39.0578C93.1309 38.3036 93.3703 37.5279 93.4489 36.7773C93.5668 35.6728 94.0491 34.654 94.3564 33.5924C94.485 33.1528 94.7387 32.7846 94.9352 32.3843C95.3889 31.4549 97.4611 28.5489 97.7362 28.2843C98.3114 27.741 98.8366 27.1441 99.5047 26.6973C100.376 26.1146 101.313 25.8358 102.359 25.9037C102.738 25.9288 103.049 26.0396 103.249 26.3792C103.52 26.7437 103.392 27.1119 103.26 27.4801C103.145 27.9805 102.199 29.3603 100.255 30.1931C97.9541 31.0974 96.9752 30.8222 96.6108 30.5684C96.3071 30.6614 96.2392 30.8365 96.45 31.0617C97.0645 31.8195 98.0399 31.6229 98.5294 31.6443C100.016 31.269 102.002 30.286 102.488 29.9465C102.906 29.6534 104.339 28.5024 104.61 28.1878C105.2 27.5123 105.743 26.8117 105.961 25.9323C106.039 25.6249 106.014 25.2854 105.9 24.9386L105.896 24.9351Z" fill="#225019"/>
<path d="M87.0752 8.36741C87.2109 11.0268 88.858 11.2949 89.1581 11.3735C90.0477 11.5987 90.9623 11.5916 91.8698 11.5666C94.5672 11.4629 95.439 10.7623 95.4354 9.07873C95.4425 7.02698 95.4354 4.97166 95.4283 2.91992C95.4283 2.32656 94.8602 1.172 92.7665 0.725193C92.0198 0.585789 90.7694 0.428513 89.5332 0.728768C87.9755 1.19345 87.411 1.87975 87.2073 2.43736C87.1216 2.66613 87.0728 3.01524 87.0609 3.48468C87.0609 3.98868 87.0144 6.53013 87.0752 8.36741ZM89.8548 8.71056C89.8548 6.97694 89.8619 5.23975 89.869 3.50256C89.844 2.684 90.162 2.37302 90.5622 2.31583C91.0088 2.25149 91.6519 2.2229 92.1378 2.35515C92.5843 2.47668 92.6594 2.83056 92.6737 3.2309C92.6844 3.5526 92.6951 3.8743 92.7022 4.19243C92.7487 5.27549 92.6987 8.40673 92.713 8.92502C92.6951 9.57558 92.3914 9.82579 92.0413 9.88298C91.5089 9.91873 91.191 9.90085 90.5693 9.89013C89.7797 9.89013 89.8548 8.82851 89.8548 8.70698V8.71056Z" fill="#225019"/>
<path d="M57.139 13.1572H57.1354C55.8885 13.0785 54.8846 13.1143 53.3483 13.1429C48.9717 13.2215 44.5986 13.2823 40.222 13.175C39.9612 13.1679 39.5682 13.15 39.3074 13.1607C39.1002 13.1715 38.968 13.0928 38.5821 13.5218C38.0927 14.0651 37.5675 14.6656 37.3567 14.9515C37.0887 15.3161 37.2745 15.2983 37.4746 15.309C37.7425 15.3233 38.0105 15.359 38.2856 15.3912C41.008 15.7058 43.9377 16.4278 46.1242 18.115C46.1242 18.115 46.1349 18.1221 46.1564 18.14C46.3957 18.3223 46.6244 18.5224 46.8423 18.7298L46.8566 18.7441C46.8781 18.7655 46.9031 18.7905 46.9281 18.8155C47.3925 19.291 47.9999 20.0309 48.5644 21.0675C48.568 21.0782 48.5751 21.0925 48.5823 21.1032C48.6037 21.1461 48.6251 21.189 48.6466 21.2355C48.7859 21.5464 48.8467 21.8967 48.8467 22.2756V22.2828C48.8467 22.3471 48.8431 22.4115 48.8395 22.4794C48.3643 22.8333 47.8499 23.1764 47.2996 23.5053C47.2639 23.5303 47.2282 23.5517 47.1925 23.5732C46.2207 24.1522 45.281 24.6598 44.3914 25.1102H44.3879C40.3542 27.1584 36.0705 28.2986 35.8132 28.3487C35.6525 28.3808 35.656 28.0913 35.631 27.884C35.3917 25.2603 34.5128 22.7367 33.8054 20.2239C33.8054 20.2239 33.8054 20.2167 33.8018 20.2132C31.3545 14.7335 30.6435 17.543 32.6156 12.8676V12.8605C33.1444 11.2627 32.6871 9.61844 32.5335 8.08142C32.5335 8.07785 32.5335 8.0707 32.5335 8.06712C32.6728 6.65521 31.6403 5.1718 30.1219 5.16823C29.4144 5.05027 30.8435 6.06542 30.522 6.81606C30.5863 9.22168 33.0551 7.93487 32.4656 11.6702C32.4513 11.7524 32.3405 11.756 32.3191 11.6738C31.9975 10.3083 29.9968 9.50406 28.9321 10.3798C28.9607 10.5764 29.2537 10.4441 29.3966 10.4835C29.9718 10.4942 30.0968 10.5693 30.2683 11.134C30.4363 11.8668 31.258 12.9213 32.0547 12.428C32.0976 12.3994 32.1548 12.4208 32.169 12.4709L32.2762 12.9284C32.2941 13.007 32.2869 13.0928 32.2441 13.1643C31.9261 13.7327 31.4759 15.5914 30.8007 15.0945C28.8071 11.4879 23.5408 9.76857 19.5108 9.75427H19.5001C17.6315 9.91512 17.1778 10.2475 17.1956 9.92942C17.0956 8.49606 17.0849 7.05555 17.1027 5.61504C17.1027 5.61146 17.1027 5.60431 17.1027 5.60074C17.7101 2.36942 18.8069 4.30678 17.3028 0.607208C17.2992 0.446357 17.1492 0.496399 17.0849 0.575037C16.356 1.18985 15.8166 2.18355 16.574 3.01997C16.8491 3.30593 17.3814 3.88142 16.9991 4.28891C16.4061 3.3524 15.3592 2.47665 14.0766 2.59461C13.5479 2.45521 11.6936 3.76346 12.3831 4.06014C12.4117 4.07087 12.4439 4.06729 12.4689 4.04942C13.4871 3.39529 14.4982 4.97163 15.5843 4.12806C17.778 3.45963 16.4096 6.67665 16.6704 7.7347C16.6704 8.12789 17.1456 9.03223 16.8133 9.26814C16.674 9.26457 16.5704 8.97146 16.5811 8.87495C16.6954 7.68466 15.7701 6.95546 14.684 6.74099C14.1088 6.67308 13.8015 5.90457 13.312 5.82593C13.2692 5.81878 13.2335 5.8581 13.2406 5.90099C13.455 7.16993 14.2124 9.36108 15.8666 9.18951C16.4239 9.03938 17.2671 10.0545 16.6812 10.2869C15.5021 10.5514 14.7197 10.7694 13.8908 11.3199C13.5443 11.4986 13.4371 11.4772 12.9226 11.2913C12.5832 11.1698 12.1116 10.9338 11.0612 10.7694C9.92508 10.5049 8.85683 10.4513 7.74927 10.7444C7.23123 10.8695 6.29874 11.0339 5.83785 11.395C4.96967 11.8382 4.30871 12.907 3.25475 12.6281C2.13648 12.4494 1.90068 13.7541 1.07895 14.1938C0.72167 14.3475 0.821707 14.6191 1.21114 14.5083C3.1833 14.444 3.84783 12.8962 2.98322 15.67C2.98322 15.6807 2.97608 15.6915 2.96893 15.7022C1.83637 17.2499 0.425131 15.981 0.0464195 18.9907C-0.132218 19.341 0.282221 19.5161 0.453713 19.173C0.832425 18.3616 1.78635 18.4009 2.35799 17.8254C2.89033 17.4215 2.37585 16.5029 2.99037 16.3492C3.03324 16.3384 3.07969 16.367 3.0904 16.4099C3.41195 17.5895 2.69026 19.2588 4.07648 19.9737C4.4552 20.0845 4.45162 21.4142 4.74816 20.9995C5.8843 17.8647 3.71564 18.7619 3.43696 17.4001C3.03681 15.5127 3.47984 13.6898 4.95895 12.403C4.95895 12.403 4.96253 12.403 4.9661 12.3994C5.54846 11.9669 6.09152 11.4879 6.97399 11.2877C7.05259 11.2698 7.10261 11.3735 7.0383 11.42C6.43093 11.8632 5.845 12.3458 5.94861 13.2394C5.95575 13.6218 5.91288 13.9936 5.59848 14.2724C5.53774 14.3224 5.48058 14.3868 5.53774 14.4726C5.93789 14.8086 6.37376 14.158 6.73819 14.0115C7.57064 13.5396 7.45988 12.4494 7.49204 11.6273C7.56349 10.2976 11.9687 11.059 13.0655 11.6344C13.1155 11.6595 13.1191 11.7274 13.0727 11.756C10.2609 13.6397 8.0208 16.46 7.19907 19.795C6.68817 22.0612 6.29874 22.0397 5.94861 23.2121C5.84857 23.4695 5.80212 23.8162 5.44128 23.8377C4.7303 23.9521 4.0479 23.5017 3.34407 23.7555C2.80101 23.9878 2.02572 24.3095 1.75777 24.7813C1.80779 24.9136 1.93283 24.9136 2.04359 24.8886C3.05825 24.6348 4.41947 25.339 5.09829 24.2559C5.27693 23.8555 5.78783 24.1344 5.52702 24.4847C4.74102 28.7061 3.11899 25.8966 2.68311 27.9483C2.39372 28.8276 2.68311 28.6525 3.37622 28.4452C4.22654 28.363 4.37302 27.6874 4.7303 27.1155C4.79818 27.4336 4.80533 27.7517 4.67671 28.0448C4.36945 28.6203 4.8482 30.0108 4.13722 30.2253C3.70135 30.211 2.98679 30.3289 2.88676 30.8186C2.92249 31.1367 2.60808 31.4334 2.65453 31.7087C2.6581 31.7337 2.67597 31.7587 2.6974 31.773C2.91891 31.9017 3.16901 31.5407 3.40481 31.5192C3.86212 31.4799 4.08363 31.1081 4.35516 30.8687C4.40161 30.8258 4.48021 30.8687 4.48378 30.9294C4.72315 33.8819 4.10864 32.4128 2.78672 33.4852C2.76886 33.4995 2.75814 33.5209 2.75457 33.5459C2.69383 33.9391 1.48981 35.1294 2.16506 34.9686C2.97965 34.5647 4.50164 34.5146 4.39089 33.31C4.30514 32.9383 4.78032 32.9383 4.79104 33.2671C6.66673 38.5216 4.83391 34.4217 4.01932 38.1534C4.06577 38.6074 5.13759 37.7602 5.43056 37.6744C5.75925 37.4778 6.0415 37.2205 6.02006 36.7808C5.99148 36.6521 6.10224 36.6057 6.19155 36.6986C7.84574 38.7396 6.07365 37.9282 6.89896 39.3616C7.12762 39.619 6.99185 39.8048 6.77749 40.03C6.86323 40.1873 7.19907 40.1158 7.32054 40.0157C8.36379 39.3401 8.39952 38.1177 7.30625 37.5422C7.30268 37.5422 7.29553 37.535 7.29196 37.5315C6.70603 36.8595 5.29122 35.3904 5.79498 34.5289C5.8057 34.511 5.82356 34.4967 5.84142 34.486C7.24194 33.8784 6.78106 33.9105 7.10975 32.5915C7.40629 31.6264 5.18404 33.2492 5.45557 33.6603C5.48058 33.8784 5.77354 34.2787 5.53059 34.4074C4.7303 33.0884 4.83391 31.1725 4.82676 29.5675C4.82676 29.4996 4.91251 29.4675 4.95538 29.5247C5.29479 29.9572 6.13439 30.9187 6.17012 30.3932C6.1987 29.6605 6.27373 28.8026 5.34838 28.6847C4.5338 28.5452 5.16975 27.5122 5.17689 26.9832C5.18404 26.9403 5.18761 26.8367 5.28765 26.8617C5.48415 27.5015 6.14511 27.6373 6.53097 28.0949C6.59528 28.1807 6.56312 28.3844 6.75248 28.3201C7.09546 28.1485 6.8275 27.7195 7.08117 27.4515C8.43882 34.0893 17.1563 38.5716 22.7727 34.7219C22.8334 34.679 22.8013 34.5825 22.7263 34.5861C19.2928 34.8399 15.3378 34.772 12.4224 32.3413C-0.0250355 21.7645 14.6125 3.55257 27.1636 15.284C27.1958 15.3126 27.1922 15.3662 27.16 15.3912C27.0064 15.5127 26.8456 15.6772 26.7492 15.8523C26.7349 15.8809 26.7027 15.8952 26.6706 15.8845C25.4237 15.4734 24.1018 16.6995 23.3872 16.1633C23.3729 16.1526 23.3658 16.1383 23.3586 16.124C22.8692 15.0588 21.8545 15.6414 21.0221 15.3876C20.1253 15.2911 21.5544 16.5744 21.9903 16.4421C22.4547 16.5136 23.0621 16.2241 23.4801 16.4385C23.5373 16.4671 23.5408 16.5529 23.4801 16.5851C22.5905 17.1034 22.2011 17.5681 21.3865 18.1364C20.6719 19.0229 19.6072 17.7003 18.8891 18.6511C18.6355 18.9192 18.2567 18.9764 17.9459 19.148C17.903 19.173 17.8959 19.2373 17.9316 19.2695C18.614 19.8736 19.7609 19.4804 20.3361 18.8441C20.4075 18.7584 20.5362 18.7012 20.629 18.7977C19.4786 20.5241 18.1424 22.6617 16.3632 23.7769C15.963 24.0271 15.5057 24.1701 15.0341 24.1737C14.0623 24.1808 12.8404 23.8091 12.5939 22.9083C12.526 22.5473 13.1834 22.5151 13.3514 21.7359C13.4264 21.4106 13.63 20.7279 13.1298 20.9066C11.5221 21.7252 11.5042 22.8475 12.7333 23.7698C12.8011 23.8198 13.0155 23.995 13.0905 24.045C13.1191 24.0664 13.137 24.1058 13.1191 24.1379C13.0262 24.3274 12.6225 24.3881 12.2509 24.2952C11.7115 24.1701 10.361 25.9645 11.3292 25.8287C13.9516 25.1995 12.8011 23.8984 13.7908 24.4239C14.1731 24.5704 14.7197 24.5347 15.6736 24.431C15.7129 24.4275 15.7558 24.4596 15.7522 24.5025C15.7129 24.7778 15.3985 25.0065 15.4771 25.3425C15.4057 25.6106 16.1131 27.4193 16.2167 26.6222C16.4882 25.9037 16.8419 25.1245 16.256 24.431C16.0166 24.1236 16.6168 23.9878 16.8098 23.8341C17.6529 23.2407 18.1889 22.6724 18.6748 21.979C18.6962 21.9504 18.7391 21.9682 18.7319 22.004C17.753 26.4792 21.5758 30.5362 25.4487 26.515C26.1132 25.6571 25.9667 27.2406 27.16 27.3121C27.4923 27.3192 28.3069 27.3299 28.0925 26.901C27.9032 26.5757 27.085 25.8179 26.3169 25.9573C26.2311 25.9788 25.9846 26.0253 25.9489 25.9287C26.7599 25.2138 26.8564 24.0128 26.6706 23.087C26.4776 22.5401 25.9489 23.6304 25.3844 24.2845C25.1021 24.6777 25.1021 25.2389 25.3844 25.7143C25.3915 25.7286 25.3987 25.7464 25.3951 25.7643C25.3558 26.2254 24.9807 26.5185 24.6234 26.8653C23.8695 27.6016 22.5869 28.0055 21.5544 27.7875C21.2686 27.7267 20.5933 27.3764 20.3647 27.212C21.2078 27.3335 22.444 27.4729 22.9942 26.4006C23.0192 26.3505 22.9835 26.2826 22.9263 26.2719C20.111 25.7643 21.3114 27.1047 20.161 26.9904C19.4286 26.2862 19.0463 25.3568 18.9391 24.3846C18.8427 23.4981 18.8677 23.3265 18.8713 22.9798C18.8713 22.6974 19.0678 22.8797 19.0892 22.919C19.1964 23.1335 19.1035 23.4373 19.3214 23.6304C19.7109 24.0343 20.4683 24.2595 20.9506 24.0521C20.9935 24.0343 21.0078 23.9771 20.9827 23.9413C20.8184 23.7197 20.4826 23.6089 20.3754 23.2336C19.9967 22.222 18.7105 22.9512 18.9749 22.2899C19.5572 20.7815 20.5612 18.7727 22.0081 18.0578C22.0617 18.0327 22.1296 18.0792 22.1153 18.1364C22.0546 18.4081 21.7259 18.7476 21.926 19.0336C22.1367 19.2695 22.4369 20.5384 22.7477 20.1095C23.8481 18.1114 21.9367 18.0077 22.8227 17.3929C23.8481 16.6566 25.1057 15.9381 26.3562 16.099C26.4098 16.1061 26.4169 16.1812 26.3705 16.2026C25.781 16.4493 25.1807 16.6387 25.1271 17.3858C25.0521 17.8218 24.9557 18.2222 24.6448 18.5475C24.5412 18.6261 24.627 18.719 24.7127 18.7655C27.7603 17.6681 25.8381 16.8067 27.5209 15.7773C27.5495 15.7594 27.5923 15.763 27.6174 15.788C30.9793 19.2695 32.8514 24.5347 33.0444 29.1887C33.0444 29.2351 33.0551 29.2959 33.0336 29.3352C33.0122 29.3745 32.955 29.3924 32.9122 29.4138C29.5395 31.1046 25.9667 33.5638 24.6913 37.2991C24.0875 38.8326 24.6091 41.374 26.5241 41.3204C26.5777 41.3204 26.617 41.2596 26.5955 41.2096C24.5091 35.687 28.2783 32.9812 32.9015 30.8436C32.9479 30.8222 33.0587 30.7793 33.1444 30.74C33.3087 30.6613 33.3195 30.7221 33.3266 30.8258C33.3302 30.9044 33.3588 31.1653 33.3623 31.294C33.466 33.6961 33.4195 41.0666 33.4052 42.4321C33.4052 42.5 33.4838 42.5321 33.5303 42.4821C35.7561 40.0086 38.9573 36.763 41.2153 34.3502H41.2188C42.9909 32.7488 44.7951 31.126 46.4493 29.3853C47.489 28.2915 48.4715 27.1548 49.3504 25.943C49.4004 25.8894 50.115 24.6133 50.483 23.8198C50.4937 23.7912 50.508 23.7626 50.5223 23.734C50.8438 23.0263 51.0439 22.3829 51.1368 21.7931C51.1618 21.6501 51.1761 21.5035 51.1868 21.3641C51.1868 21.3463 51.194 21.332 51.2082 21.3177C52.4337 20.1274 53.627 18.8155 54.9132 17.3178C54.9918 17.2213 55.0775 17.1213 55.1633 17.0212C56.7246 15.0516 57.2891 14.2009 57.5284 13.8041C57.6642 13.579 57.6928 13.5003 57.7392 13.4503C57.8857 13.2251 57.9536 13.1965 57.1247 13.1572H57.139ZM5.6485 24.7706C5.88787 24.0843 6.12724 23.2229 6.48452 22.6295C6.52382 22.5652 6.62029 22.5866 6.62386 22.6617C6.68102 23.8806 6.60599 25.2532 6.82036 26.4685C6.83108 26.5328 6.76677 26.5757 6.7096 26.5435C6.00934 26.1182 5.2805 25.8001 5.6485 24.7742V24.7706ZM48.6037 23.7304L48.6001 23.734C48.593 23.7698 48.5823 23.8019 48.5715 23.8341C48.0285 25.5463 46.7923 27.4121 45.8634 28.5417C45.7348 28.699 45.6169 28.8384 45.5026 28.9635C43.7948 30.883 41.744 32.5951 40.0327 34.3752C33.5517 40.6555 36.8065 37.9497 35.9419 30.4433C35.9276 30.2681 35.8311 29.9035 35.9705 29.8428C36.2456 29.7213 36.4671 29.6176 36.785 29.4925H36.7922C39.3145 28.6668 41.1367 28.1413 42.1549 27.6802C44.7701 26.3434 46.8209 25.0387 48.643 23.5875C48.6323 23.6339 48.618 23.684 48.6037 23.7304ZM54.831 15.3519C54.831 15.3519 54.831 15.3555 54.8274 15.3555C54.4987 15.7951 53.6056 17.8933 51.4333 20.1917C51.3547 20.2775 51.2725 20.3633 51.1832 20.4491C51.1832 20.4241 51.1725 20.3812 51.1654 20.3311C51.1582 20.2954 51.1547 20.2596 51.1475 20.2239C51.1368 20.1488 51.1225 20.0809 51.1154 20.0452C51.0046 19.6448 50.7974 19.0193 49.9721 17.8361V17.829C49.5791 17.3464 49.1146 16.8961 48.6144 16.4421C48.6109 16.4385 48.6073 16.435 48.6037 16.4314C48.0571 16.0132 47.3711 15.6093 46.4994 15.2447C46.1349 15.1017 45.8813 14.9694 45.7241 14.923C44.8988 14.6763 45.8598 14.7442 47.8856 14.755C49.9113 14.7657 51.344 14.805 51.4833 14.8014C51.5655 14.8014 54.9418 14.7943 55.0239 14.7943C55.224 14.7943 55.2562 14.7478 54.8346 15.3519H54.831Z" fill="#225019"/>
</g>
<defs>
<clipPath id="clip0_74_327">
<rect width="106" height="42" fill="white" transform="translate(0 0.5)"/>
</clipPath>
</defs>
</svg>
