<svg width="20" height="20" viewBox="0 0 20 20" fill="none" xmlns="http://www.w3.org/2000/svg">
<path d="M6 6.80078H14M6 10.8008H12M16 1.80078C16.7956 1.80078 17.5587 2.11685 18.1213 2.67946C18.6839 3.24207 19 4.00513 19 4.80078V12.8008C19 13.5964 18.6839 14.3595 18.1213 14.9221C17.5587 15.4847 16.7956 15.8008 16 15.8008H11L6 18.8008V15.8008H4C3.20435 15.8008 2.44129 15.4847 1.87868 14.9221C1.31607 14.3595 1 13.5964 1 12.8008V4.80078C1 4.00513 1.31607 3.24207 1.87868 2.67946C2.44129 2.11685 3.20435 1.80078 4 1.80078H16Z" stroke="#225019" stroke-width="2" stroke-linecap="round" stroke-linejoin="round"/>
</svg>
