<svg width="16" height="17" viewBox="0 0 16 17" fill="none" xmlns="http://www.w3.org/2000/svg">
<path d="M5.775 8.30078C5.175 8.30078 4.675 8.07578 4.275 7.62578C3.875 7.17578 3.71667 6.65078 3.8 6.05078L4.125 3.60078C4.25834 2.65078 4.69167 1.86312 5.425 1.23778C6.15834 0.612449 7.01667 0.300116 8 0.300782C8.98334 0.300782 9.84167 0.613449 10.575 1.23878C11.3083 1.86412 11.7417 2.65145 11.875 3.60078L12.2 6.05078C12.2833 6.65078 12.125 7.17578 11.725 7.62578C11.325 8.07578 10.825 8.30078 10.225 8.30078H5.775ZM5.775 6.30078H10.225L9.9 3.90078C9.83333 3.43412 9.621 3.05078 9.263 2.75078C8.905 2.45078 8.484 2.30078 8 2.30078C7.51667 2.30078 7.09567 2.45078 6.737 2.75078C6.37834 3.05078 6.166 3.43412 6.1 3.90078L5.775 6.30078ZM2 16.3008C1.45 16.3008 0.979002 16.1048 0.587002 15.7128C0.195002 15.3208 -0.000664969 14.8501 1.69779e-06 14.3008V13.5008C1.69779e-06 12.9341 0.146002 12.4131 0.438002 11.9378C0.730002 11.4624 1.11733 11.1001 1.6 10.8508C2.63333 10.3341 3.68334 9.94645 4.75 9.68778C5.81667 9.42912 6.9 9.30012 8 9.30078C9.1 9.30078 10.1833 9.43011 11.25 9.68878C12.3167 9.94745 13.3667 10.3348 14.4 10.8508C14.8833 11.1008 15.271 11.4634 15.563 11.9388C15.855 12.4141 16.0007 12.9348 16 13.5008V14.3008C16 14.8508 15.804 15.3218 15.412 15.7138C15.02 16.1058 14.5493 16.3015 14 16.3008H2ZM2 14.3008H14V13.5008C14 13.3174 13.954 13.1508 13.862 13.0008C13.77 12.8508 13.6493 12.7341 13.5 12.6508C12.6 12.2008 11.6917 11.8634 10.775 11.6388C9.85833 11.4141 8.93334 11.3014 8 11.3008C7.06667 11.3008 6.14167 11.4134 5.225 11.6388C4.30834 11.8641 3.4 12.2014 2.5 12.6508C2.35 12.7341 2.229 12.8508 2.137 13.0008C2.045 13.1508 1.99934 13.3174 2 13.5008V14.3008Z" fill="#225019"/>
</svg>
