<svg width="20" height="21" viewBox="0 0 20 21" fill="none" xmlns="http://www.w3.org/2000/svg">
<path d="M10 0.300781C15.523 0.300781 20 4.77778 20 10.3008C20 15.8238 15.523 20.3008 10 20.3008C8.29797 20.3033 6.62369 19.8695 5.13701 19.0408L4.83201 18.8628L1.80001 19.7548C1.63501 19.8034 1.46033 19.8091 1.29252 19.7713C1.12472 19.7335 0.96935 19.6534 0.841146 19.5387C0.712942 19.4241 0.616152 19.2785 0.559952 19.116C0.503751 18.9534 0.490002 18.7792 0.520009 18.6098L0.546009 18.5008L1.43801 15.4688C0.494968 13.9101 -0.00241404 12.1226 8.80954e-06 10.3008C8.80954e-06 4.77778 4.47701 0.300781 10 0.300781ZM10 2.30078C8.56764 2.30052 7.16147 2.68484 5.92834 3.4136C4.69521 4.14235 3.68036 5.18882 2.98977 6.44372C2.29918 7.69862 1.95817 9.11592 2.00237 10.5476C2.04656 11.9793 2.47433 13.3729 3.24101 14.5828C3.43901 14.8948 3.52401 15.2788 3.45701 15.6598L3.41801 15.8228L2.97701 17.3238L4.47801 16.8828C4.91101 16.7548 5.36101 16.8328 5.71801 17.0598C6.76634 17.7236 7.9547 18.1344 9.18915 18.2598C10.4236 18.3852 11.6703 18.2218 12.8307 17.7824C13.9911 17.343 15.0334 16.6397 15.8752 15.7281C16.717 14.8165 17.3352 13.7216 17.6809 12.5299C18.0266 11.3382 18.0904 10.0825 17.8673 8.86189C17.6441 7.64131 17.14 6.48938 16.395 5.49716C15.65 4.50493 14.6843 3.69961 13.5744 3.14486C12.4645 2.59011 11.2408 2.30114 10 2.30078ZM7.10201 5.48478C7.21272 5.43684 7.33401 5.41854 7.45394 5.43169C7.57387 5.44484 7.68831 5.48899 7.78601 5.55978C8.29001 5.92778 8.69001 6.42178 9.03401 6.90378L9.36101 7.37778L9.51401 7.60278C9.60229 7.73186 9.64561 7.88641 9.6373 8.04257C9.62899 8.19873 9.56949 8.34781 9.46801 8.46678L9.39301 8.54278L8.46901 9.22878C8.42454 9.26098 8.39324 9.30821 8.38092 9.36171C8.3686 9.41522 8.3761 9.47138 8.40201 9.51978C8.61201 9.89978 8.98301 10.4668 9.40901 10.8928C9.83601 11.3188 10.429 11.7148 10.835 11.9478C10.923 11.9978 11.029 11.9818 11.101 11.9168L11.139 11.8718L11.74 10.9568C11.8503 10.8098 12.0133 10.7112 12.1947 10.6818C12.3761 10.6523 12.5618 10.6943 12.713 10.7988L13.256 11.1778C13.796 11.5628 14.315 11.9768 14.726 12.5018C14.8024 12.6003 14.851 12.7174 14.8667 12.8411C14.8823 12.9648 14.8645 13.0904 14.815 13.2048C14.419 14.1288 13.416 14.9158 12.374 14.8778L12.215 14.8678L12.024 14.8498C11.988 14.8455 11.952 14.8408 11.916 14.8358L11.678 14.7958C10.754 14.6218 9.27301 14.0978 7.73801 12.5638C6.20401 11.0288 5.68001 9.54778 5.50601 8.62378L5.46601 8.38578L5.44101 8.17778L5.42801 8.00278C5.42643 7.97779 5.42509 7.95279 5.42401 7.92778C5.38601 6.88378 6.17701 5.88078 7.10201 5.48478Z" fill="#225019"/>
</svg>
