<svg width="17" height="16" viewBox="0 0 17 16" fill="none" xmlns="http://www.w3.org/2000/svg">
<path d="M14.1667 2.3038C13.4027 1.57065 12.4927 0.989367 11.4897 0.593838C10.4867 0.198308 9.41093 -0.00354676 8.325 4.71593e-05C3.775 4.71593e-05 0.0666668 3.52296 0.0666668 7.84546C0.0666668 9.23088 0.45 10.5767 1.16667 11.7642L0 15.8334L4.375 14.7409C5.58333 15.3663 6.94167 15.6988 8.325 15.6988C12.875 15.6988 16.5833 12.1759 16.5833 7.85338C16.5833 5.75546 15.725 3.78421 14.1667 2.3038ZM8.325 14.3688C7.09167 14.3688 5.88333 14.0521 4.825 13.4584L4.575 13.3159L1.975 13.965L2.66667 11.5584L2.5 11.313C1.81479 10.2735 1.45095 9.07195 1.45 7.84546C1.45 4.2513 4.53333 1.32213 8.31667 1.32213C10.15 1.32213 11.875 2.00296 13.1667 3.23796C13.8062 3.84277 14.3131 4.56215 14.6578 5.35443C15.0026 6.1467 15.1784 6.99609 15.175 7.85338C15.1917 11.4475 12.1083 14.3688 8.325 14.3688ZM12.0917 9.49213C11.8833 9.39713 10.8667 8.92213 10.6833 8.85088C10.4917 8.78755 10.3583 8.75588 10.2167 8.94588C10.075 9.1438 9.68333 9.58713 9.56667 9.7138C9.45 9.84838 9.325 9.86421 9.11667 9.7613C8.90833 9.6663 8.24167 9.45255 7.45833 8.78755C6.84167 8.26505 6.43333 7.6238 6.30833 7.42588C6.19167 7.22796 6.29167 7.12505 6.4 7.02213C6.49167 6.93505 6.60833 6.79255 6.70833 6.68171C6.80833 6.57088 6.85 6.4838 6.91667 6.35713C6.98333 6.22255 6.95 6.11171 6.9 6.01671C6.85 5.92171 6.43333 4.95588 6.26667 4.56005C6.1 4.18005 5.925 4.22755 5.8 4.21963H5.4C5.25833 4.21963 5.04167 4.26713 4.85 4.46505C4.66667 4.66296 4.13333 5.13796 4.13333 6.1038C4.13333 7.06963 4.875 8.0038 4.975 8.13046C5.075 8.26505 6.43333 10.2442 8.5 11.0913C8.99167 11.2971 9.375 11.4159 9.675 11.503C10.1667 11.6534 10.6167 11.6296 10.975 11.5821C11.375 11.5267 12.2 11.1071 12.3667 10.648C12.5417 10.1888 12.5417 9.80088 12.4833 9.7138C12.425 9.62671 12.3 9.58713 12.0917 9.49213Z" fill="#E8F2ED"/>
</svg>
