<svg width="106" height="42" viewBox="0 0 106 42" fill="none" xmlns="http://www.w3.org/2000/svg">
<g clip-path="url(#clip0_112_658)">
<path d="M86.9179 37.1997C88.2399 33.593 89.7225 30.0543 91.1409 26.4798C91.3053 25.1966 93.231 26.8516 93.2953 25.8328C93.3632 25.1894 93.5204 24.9106 92.6308 24.5889C92.0698 24.3852 92.0913 24.135 92.1449 23.7632C93.549 20.1459 95.221 16.5678 96.0963 12.786C94.5708 12.6359 92.2735 14.4732 90.4585 14.8735C89.8226 14.9986 90.2442 15.9137 90.7979 15.5706C94.3207 14.6483 91.2195 19.8456 90.7479 21.3397C90.0977 23.0376 90.0155 24.017 87.7575 24.4889C84.5528 25.1573 81.6946 27.1304 79.2186 29.2751C71.7302 35.534 70.2939 48.041 81.9018 37.2926C84.2062 35.366 87.6896 30.7048 86.1819 28.2099C85.8533 27.663 85.8282 29.9042 84.0776 32.753C83.3738 33.8897 80.8335 37.096 79.8653 37.986C71.9231 44.4487 75.6602 31.0623 85.7854 26.4441C86.8286 25.9687 89.4224 25.3503 89.0544 26.0294C87.0644 30.1866 83.5988 39.8269 83.1308 41.4068C83.0987 41.5105 83.0951 41.6213 83.2773 41.5641C85.646 40.6919 88.4042 39.5481 89.3688 38.8582C89.9369 38.4543 89.794 38.3256 88.2077 38.8582C86.232 39.5231 86.3784 38.6831 86.9144 37.1889L86.9179 37.1997Z" fill="#E8F2ED"/>
<path d="M62.2338 32.5027C62.1338 33.1532 61.7622 33.7037 61.4371 34.2256C60.7047 35.4052 60.0473 36.6383 58.9897 37.6106C58.3645 38.1861 57.7714 38.7866 57.0462 39.2263C56.5888 39.5051 56.0744 39.6766 55.5635 39.8375C55.1347 39.9697 54.6881 39.9304 54.2523 39.8947C53.7664 39.8554 53.3233 39.6159 53.1626 39.144C53.034 38.7687 52.9625 38.3612 52.9482 37.943C52.9196 37.0458 53.0411 36.1665 53.2233 35.3015C53.3912 34.5044 53.5699 33.6787 53.9807 32.9781C54.3737 32.3061 54.6167 31.5662 55.0275 30.9013C55.4599 30.2043 55.8707 29.4966 56.3638 28.8424C57.0354 27.9488 57.7643 27.1017 58.6789 26.4368C59.0255 26.1866 59.3792 25.9292 59.765 25.7577C60.4724 25.4395 61.2334 25.343 62.0087 25.3966C62.3481 25.4181 62.6947 25.4503 62.8912 25.8077C63.0948 26.183 62.9984 26.544 62.9055 26.9265C62.7125 27.7129 62.1445 28.2383 61.5943 28.7423C60.9262 29.3572 60.083 29.7539 59.2148 29.9684C58.2466 30.2079 57.2355 30.3401 56.2244 30.1185C56.1387 30.1006 56.0422 30.0971 55.9743 30.1721C55.9029 30.2543 55.9493 30.3401 55.9922 30.4188C56.0494 30.526 56.0958 30.6511 56.1851 30.7262C56.6531 31.1301 57.2212 31.2195 57.8072 31.1229C59.029 30.9263 60.1544 30.4116 61.2477 29.8862C62.0087 29.5216 62.784 29.1034 63.4021 28.4671C63.695 28.1633 64.0059 27.8702 64.2738 27.5449C64.8097 26.8943 65.3457 26.2331 65.5314 25.3752C65.6815 24.6889 65.3278 23.999 64.6883 23.8096C64.2845 23.6916 63.8558 23.7095 63.4378 23.7703C62.934 23.8418 61.2977 23.9383 58.4288 25.7076C57.7714 26.0794 55.1347 28.3527 54.5417 29.1391C54.1129 29.711 51.8407 32.5206 51.0868 35.1371C50.9153 35.6125 50.8188 36.1379 50.6867 36.6383C50.3687 37.8501 50.3258 39.0583 50.6402 40.27C50.7831 40.8205 51.169 41.2315 51.6191 41.5032C52.0979 41.7927 52.6588 41.8035 53.2447 41.7427C54.4488 41.6176 55.5242 41.1886 56.496 40.5202C57.6607 39.7231 58.8218 38.9153 59.8115 37.8894C60.3545 37.3282 60.9869 36.8564 61.4228 36.188C61.9194 35.4302 62.5089 34.7367 62.6447 33.7823C62.7233 33.2355 62.7197 32.7386 62.3838 32.2846C62.2838 32.3311 62.2481 32.424 62.2374 32.5027H62.2338Z" fill="#E8F2ED"/>
<path d="M77.4751 8.25669C77.4823 8.76427 77.4751 9.28614 77.8253 9.73652C78.3112 10.3549 78.9578 10.6623 79.701 10.8196C80.0332 10.8911 80.3691 10.9554 80.7013 11.0269C80.8478 11.0591 80.9228 11.1377 80.9228 11.3057C80.9228 11.9277 80.905 11.8741 81.4873 11.8741C81.5659 11.8741 81.7196 11.8812 81.7982 11.8955C81.9768 11.9277 82.0375 12.0027 82.0518 12.1958C82.0661 12.4031 81.9232 12.4996 81.741 12.5175C81.5195 12.5353 81.298 12.5282 81.0765 12.5175C80.9907 12.5175 80.88 12.4889 80.8728 12.3781C80.8514 12.0206 80.9086 12.0099 80.4298 12.0206C80.0547 12.0313 79.7188 12.0206 79.3258 12.0313C79.1472 12.0385 79.0471 12.0063 79.0579 12.328C79.0686 12.6211 79.3258 13.1072 80.4369 13.1358C80.9443 13.143 82.7807 13.0751 83.1022 13.025C84.2205 12.8999 83.9918 12.5604 83.949 12.11C83.8954 11.7632 83.5631 11.6274 83.1665 11.5452C82.9522 11.4987 82.427 11.4666 82.2055 11.4523C82.0625 11.4415 82.0804 11.32 82.0733 11.1878C82.0626 11.0305 82.1304 11.0805 82.2662 11.0627C82.7485 10.9983 83.2273 10.9232 83.6774 10.7588C84.2098 10.5694 84.7135 10.3049 85.1351 9.90452C85.6853 9.27899 85.7175 8.17448 85.6925 7.74554C85.6782 7.47746 85.6996 7.24869 85.621 6.99848C85.6067 6.95201 85.5639 6.91984 85.5138 6.91984C85.203 6.91627 84.049 6.90197 83.4381 6.89482C83.1737 6.89125 83.0701 6.98776 83.0629 7.23082C83.0558 7.53108 83.0236 7.83133 83.0415 8.12801C83.0915 9.09312 82.5663 9.43269 81.6874 9.46844C81.4195 9.47916 81.1622 9.42197 80.905 9.35048C80.4905 9.2361 80.2833 9.02163 80.2726 8.58554C80.219 6.56954 80.1833 4.55712 80.2369 2.54112C80.2476 2.1372 80.5477 1.79763 80.9443 1.74044C81.4159 1.67252 81.8839 1.64035 82.3591 1.78333C82.6521 1.86912 82.8128 2.02639 82.895 2.29448C82.9557 2.40886 82.9665 3.36682 82.97 3.44546C83.0022 4.03525 83.0486 3.90656 83.8668 3.91014C84.467 3.89227 84.7707 3.91014 85.2673 3.89227C85.9318 3.85652 85.8532 3.97805 85.6996 2.84495C85.6603 2.40529 85.5317 1.59388 85.153 1.18282C84.8422 0.843246 83.8382 0.135501 82.3734 0.0640117C81.791 0.0640117 80.2011 -0.0217755 78.8685 0.489373C78.5112 0.693118 77.4644 1.25074 77.4644 2.89499C77.4716 3.22742 77.4716 3.55984 77.4716 3.89227C77.4716 5.3435 77.4537 6.79831 77.4716 8.24954L77.4751 8.25669Z" fill="#E8F2ED"/>
<path d="M69.047 10.9238C69.3007 10.9274 69.34 10.9417 69.3579 10.8631C69.4793 10.4127 69.6151 9.76572 69.7759 9.14018C69.8187 8.97576 69.8473 8.95789 70.0617 8.95789C71.0192 8.95431 72.0481 8.96146 73.0056 8.96861C73.1021 8.96861 73.1593 8.98291 73.1914 9.11159C73.3165 9.62989 73.4094 10.066 73.5237 10.5378C73.5808 10.7701 73.6559 10.8952 73.9345 10.8988C74.5669 10.906 75.1814 10.8845 75.8174 10.8881C76.582 10.8952 76.3962 10.8631 75.8317 8.61831C75.578 7.61389 73.6845 0.450653 73.638 0.268355C73.6201 0.193292 73.5737 0.189717 73.488 0.193292C73.4451 0.193292 70.3868 0.221887 69.7437 0.225462C69.6437 0.225462 69.658 0.225462 69.6365 0.279079C69.4543 0.929632 66.9784 10.2197 66.8462 10.7558C66.8069 10.9131 66.7962 10.9024 66.982 10.8988C67.2142 10.8952 67.768 10.8988 69.0506 10.9238H69.047ZM70.2046 7.22427C70.4082 6.53797 70.594 5.78376 70.7548 5.08674C70.9442 4.27891 71.1514 3.55687 71.3765 2.67755C71.5229 2.10921 71.5908 2.66325 71.6194 2.7955C71.7409 3.40674 71.9231 3.99295 72.0624 4.59346C72.2446 5.39414 72.4519 6.18767 72.6698 6.97763C72.8341 7.58529 72.8806 7.53882 72.5912 7.5424C72.0624 7.54955 70.8691 7.55312 70.3475 7.5424C70.0938 7.53882 70.0938 7.59601 70.2046 7.2207V7.22427Z" fill="#E8F2ED"/>
<path d="M76.6891 26.115C77.0428 26.2115 77.1071 26.1007 77.175 25.8827C77.3394 25.3608 77.5502 24.8568 77.7538 24.3492C77.836 24.1419 77.8395 23.9382 77.5716 23.8738C76.7677 23.6737 75.9746 23.7523 75.3243 24.2491C74.9349 24.5458 72.802 25.922 70.7583 28.1882C70.4618 28.4992 70.1939 28.8316 69.9045 29.1462C69.8116 29.2462 69.6865 29.4393 69.5686 29.3535C69.4293 29.257 69.5579 29.0747 69.6294 28.9388C69.7365 28.7244 70.1796 27.2982 70.3582 26.8514C70.6905 26.0185 70.7941 25.5431 70.887 24.7245C70.887 24.6102 70.9013 23.7594 70.7119 23.7237C70.544 23.6915 70.4475 23.7952 70.2546 23.9203C70.1939 23.9596 67.7251 25.7182 65.7529 26.6333C65.535 26.7405 65.4207 26.9872 65.5243 27.1766C65.6457 27.3947 65.8137 27.3947 66.0209 27.2874C66.2853 27.1516 66.5532 27.0229 66.8283 26.9157C67.207 26.7656 67.6 26.9264 67.6358 27.2231C67.7322 28.0023 67.5036 28.7315 67.2928 29.4607C67.1534 29.9468 66.9748 30.4187 66.8462 30.9084C66.6604 31.6054 66.4532 32.2988 66.1459 32.9494C65.7779 33.7251 65.5421 34.5436 65.242 35.3407C64.9455 36.1307 64.6061 36.9028 64.3595 37.7142C64.1452 38.4183 63.1841 40.6774 63.0519 41.1314C62.9662 41.4209 63.0126 41.4638 63.3199 41.4638C63.5378 41.4638 64.6632 41.0563 65.0562 40.9776C65.4993 40.8883 65.6422 40.7632 65.7601 40.2878C65.9351 39.5872 66.1959 38.8902 66.446 38.1967C66.9498 36.7884 67.4035 35.3622 68.018 33.9931C68.2467 33.482 68.4182 32.9351 68.704 32.4561C69.122 31.7555 69.5472 31.0549 69.9831 30.3651C70.6083 29.3749 71.3657 28.5028 72.1732 27.6735C72.8127 27.0158 73.563 26.4939 74.4454 26.1686C75.1957 25.8934 75.971 25.9184 76.6998 26.1186L76.6891 26.115Z" fill="#E8F2ED"/>
<path d="M58.6574 10.8803C58.8575 10.8875 60.6081 10.8946 60.7761 10.8982C61.2262 10.9018 61.1762 10.9232 61.1583 10.1226C61.1369 9.18247 61.1834 8.24596 61.1583 7.30945C61.1476 6.91984 61.1905 6.83047 61.5835 6.8269C62.173 6.81975 62.7625 6.8126 63.352 6.81618C64.1059 6.81975 64.8061 6.63388 65.4457 6.24426C66.0173 5.89754 66.4746 5.44716 66.5175 4.72154C66.5639 3.92443 66.5639 3.20954 66.4853 2.43745C66.4389 1.9835 66.5211 0.121199 61.2905 0.214135C60.5117 0.17839 59.7328 0.21056 58.954 0.21056C58.5395 0.214135 58.4573 0.278475 58.4573 0.689539C58.4573 3.08801 58.4645 5.4829 58.4573 7.87779C58.4502 8.79643 58.4359 9.73294 58.4359 10.648C58.4359 10.8982 58.5181 10.8768 58.661 10.8839L58.6574 10.8803ZM61.1583 4.24256C61.1583 4.24256 61.1691 2.81277 61.1548 2.10503C61.1476 1.83694 61.2691 1.73328 61.5514 1.74758C62.1444 1.7726 62.7554 1.71184 63.3627 1.84767C63.72 1.92988 63.8129 2.29448 63.8236 2.63405C63.8379 3.1452 63.8343 3.65635 63.8486 4.16392C63.8772 4.96103 63.8736 5.1755 63.1234 5.3292C62.641 5.42928 61.8943 5.41856 61.4049 5.40784C61.2262 5.40426 61.1476 5.3292 61.1548 5.13975C61.1691 4.84307 61.1548 4.54282 61.1548 4.24256H61.1583Z" fill="#E8F2ED"/>
<path d="M49.0181 9.701C49.3183 10.0549 49.697 10.348 50.1257 10.5589C50.851 10.9163 51.6227 11.0486 52.4301 11.0593C53.5841 11.0772 54.6774 10.8913 55.7063 10.323C56.4816 9.89402 56.771 9.20415 56.7889 8.41777C56.821 7.19172 56.0172 6.40891 55.1025 5.77266C54.2808 5.20432 53.3447 4.81113 52.498 4.27853C52.0014 3.96755 51.6513 3.54219 51.5512 2.97743C51.4298 2.27326 51.5691 1.76568 52.4337 1.73351C52.7552 1.71921 53.2197 1.73709 53.627 1.75138C54.1558 1.76926 54.1951 2.28755 54.2058 2.7844C54.2129 3.1347 54.2737 3.14185 54.6131 3.13828C54.9311 3.13828 56.1494 3.15615 56.4638 3.15257C56.8282 3.149 56.8532 3.17402 56.8246 2.81657C56.7996 2.49845 56.7746 2.27326 56.6603 2.02304C56.3387 1.31172 55.4384 0.125 52.966 0.125C52.055 0.146447 50.0149 0.200064 49.2539 1.30457C48.8538 1.91223 48.5894 2.53419 48.7466 3.28126C49.0039 4.73606 52.0157 6.41606 52.9517 6.86645C53.7342 7.24177 53.9843 7.74934 54.0236 8.06032C54.1272 8.86457 53.9164 9.49368 52.9267 9.48296C52.7159 9.48296 52.5087 9.49726 52.2908 9.48296C51.8263 9.45436 51.269 9.16126 51.2154 8.54645C51.2011 8.3713 51.2154 8.19257 51.2154 8.01385C51.2154 7.78151 51.0725 7.6564 50.8617 7.6564C50.215 7.6564 49.5719 7.67785 48.9253 7.685C48.6859 7.685 48.5751 7.81011 48.593 8.03887C48.6144 8.31411 48.618 8.59292 48.6859 8.85743C48.7609 9.15411 48.8395 9.48296 49.0289 9.70815L49.0181 9.701Z" fill="#E8F2ED"/>
<path d="M39.8255 1.03654C39.8255 2.61288 39.8469 10.7412 39.854 10.8091C39.8648 10.8878 39.9005 10.8735 40.0291 10.877C40.0755 10.877 46.9924 10.8878 47.2496 10.877C47.3354 10.877 47.3318 10.7984 47.3282 10.7555C47.3211 10.3373 47.3175 10.0299 47.3282 9.62241C47.3282 9.49373 47.3497 9.42939 47.1746 9.42939C47.0067 9.42939 42.9302 9.45083 42.8444 9.45083C42.6801 9.45083 42.5908 9.45798 42.5943 9.28998C42.5943 9.20062 42.6086 7.56709 42.58 6.94156C42.5693 6.71637 42.58 6.56624 42.58 6.46615C42.5693 6.25169 42.6444 6.27313 42.7515 6.27313C42.8516 6.27313 43.0016 6.26598 43.2124 6.26598C44.1128 6.26598 45.0167 6.26598 45.917 6.26598C46.2957 6.26598 46.3707 6.19807 46.385 5.82632C46.3957 5.56181 46.385 5.29373 46.4029 5.02922C46.4208 4.80045 46.3207 4.73254 46.1135 4.73969C45.2489 4.76828 43.1302 4.779 42.7908 4.76828C42.7337 4.76828 42.6729 4.76828 42.6336 4.76828C42.5229 4.76828 42.5586 4.70394 42.555 4.31432C42.5515 3.57798 42.5943 2.83807 42.5658 2.10173C42.555 1.84437 42.6515 1.79432 42.8516 1.77645C42.9516 1.7693 43.0516 1.7693 43.1517 1.7693C44.4629 1.7693 45.7777 1.77645 47.0889 1.78003C47.2103 1.78003 47.3532 1.80505 47.3497 1.6156C47.3425 1.251 47.3425 0.889983 47.3425 0.518238C47.3425 0.225132 47.4068 0.160792 47.071 0.157217C46.4672 0.150068 40.0755 0.153643 39.9326 0.160792C39.8112 0.16794 39.8183 0.200111 39.8255 0.33594C39.8326 0.464621 39.8255 1.00079 39.8255 1.02581V1.03654Z" fill="#E8F2ED"/>
<path d="M16.4561 29.0391C16.4168 28.6173 16.1238 28.4314 15.8023 28.2599C15.6772 28.1919 15.5379 28.1455 15.4164 28.074C15.1449 27.9131 14.8091 27.8524 14.6304 27.5485C14.5876 27.477 14.4911 27.4306 14.3946 27.4842C14.3053 27.5342 14.291 27.62 14.2982 27.7165C14.3446 27.931 14.366 28.1526 14.4411 28.3599C14.6411 28.9283 15.0234 29.3501 15.6022 29.5288C15.9881 29.6503 16.3668 29.754 16.6419 30.0721C16.6848 30.1222 16.7276 30.1972 16.7991 30.1615C16.8741 30.1257 16.892 30.0399 16.8777 29.9577C16.8563 29.8612 16.8312 29.7361 16.6776 29.586C16.4954 29.4073 16.4775 29.2786 16.4561 29.0427V29.0391Z" fill="#E8F2ED"/>
<path d="M17.0313 28.5316C17.2242 28.2671 17.5351 28.1849 17.7816 28.0026C18.046 27.806 18.2032 27.5665 18.1925 27.2233C18.1817 26.8194 18.171 26.4155 18.0495 26.0259C18.0138 25.9115 18.0353 25.7471 17.8781 25.7471C17.6887 25.7471 17.7316 25.9329 17.7066 26.0545C17.6601 26.3226 17.6565 26.6085 17.385 26.7801C16.9741 27.0375 16.7348 27.3163 16.7598 27.8346C16.7741 28.0883 16.7776 28.3314 16.8348 28.4744C16.8705 28.5566 16.942 28.6495 17.0242 28.5352L17.0313 28.5316Z" fill="#E8F2ED"/>
<path d="M105.896 24.4351C105.75 23.9918 104.492 23.4807 102.352 24.0204C101.573 24.2706 100.802 24.5459 100.087 24.9712C96.7644 26.687 94.2099 29.9147 93.8205 30.458C93.1024 31.4732 92.57 32.5849 92.0127 33.6894C91.4696 34.7617 90.7658 37.5712 90.8408 40.0555C90.8944 41.0742 91.734 41.4424 92.1413 41.5889C94.1492 42.2359 96.6858 40.7132 97.1539 40.4129C97.5361 40.1663 97.9041 39.8875 98.2757 39.6266C98.8831 39.1976 99.4261 38.6722 99.9942 38.1896C100.873 37.2853 101.938 36.1736 102.399 35.4266C102.92 34.5758 103.188 33.6894 103.117 32.6921C103.095 32.4133 102.613 32.2238 102.584 32.4597C102.306 34.2291 101.58 34.994 101.305 35.4694C100.855 36.2451 99.9192 37.0958 99.2761 37.7249C98.0542 38.7937 95.6461 40.5452 94.0849 39.598C93.6954 39.3227 93.5239 38.9438 93.3917 38.5578C93.1309 37.8036 93.3703 37.0279 93.4489 36.2773C93.5668 35.1728 94.0491 34.154 94.3564 33.0924C94.485 32.6528 94.7387 32.2846 94.9352 31.8843C95.3889 30.9549 97.4611 28.0489 97.7362 27.7843C98.3114 27.241 98.8366 26.6441 99.5047 26.1973C100.376 25.6146 101.313 25.3358 102.359 25.4037C102.738 25.4288 103.049 25.5396 103.249 25.8792C103.52 26.2437 103.392 26.6119 103.26 26.9801C103.145 27.4805 102.199 28.8603 100.255 29.6931C97.9541 30.5974 96.9752 30.3222 96.6108 30.0684C96.3071 30.1614 96.2392 30.3365 96.45 30.5617C97.0645 31.3195 98.0399 31.1229 98.5294 31.1443C100.016 30.769 102.002 29.786 102.488 29.4465C102.906 29.1534 104.339 28.0024 104.61 27.6878C105.2 27.0123 105.743 26.3117 105.961 25.4323C106.039 25.1249 106.014 24.7854 105.9 24.4386L105.896 24.4351Z" fill="#E8F2ED"/>
<path d="M87.0752 7.86767C87.2109 10.5271 88.858 10.7952 89.1581 10.8738C90.0477 11.099 90.9623 11.0918 91.8698 11.0668C94.5672 10.9632 95.439 10.2626 95.4354 8.57899C95.4425 6.52725 95.4354 4.47193 95.4283 2.42018C95.4283 1.82682 94.8602 0.672269 92.7665 0.22546C92.0198 0.0860562 90.7694 -0.0712204 89.5332 0.229035C87.9755 0.693716 87.411 1.38001 87.2073 1.93763C87.1216 2.1664 87.0728 2.5155 87.0609 2.98495C87.0609 3.48895 87.0144 6.0304 87.0752 7.86767ZM89.8548 8.21082C89.8548 6.47721 89.8619 4.74001 89.869 3.00282C89.844 2.18427 90.162 1.87329 90.5622 1.8161C91.0088 1.75176 91.6519 1.72316 92.1378 1.85542C92.5843 1.97695 92.6594 2.33082 92.6737 2.73116C92.6844 3.05286 92.6951 3.37457 92.7022 3.69269C92.7487 4.77576 92.6987 7.90699 92.713 8.42529C92.6951 9.07584 92.3914 9.32606 92.0413 9.38325C91.5089 9.41899 91.191 9.40112 90.5693 9.3904C89.7797 9.3904 89.8548 8.32878 89.8548 8.20725V8.21082Z" fill="#E8F2ED"/>
<path d="M57.139 12.657H57.1354C55.8885 12.5783 54.8846 12.6141 53.3483 12.6427C48.9717 12.7213 44.5986 12.7821 40.222 12.6748C39.9612 12.6677 39.5682 12.6498 39.3074 12.6605C39.1002 12.6712 38.968 12.5926 38.5821 13.0215C38.0927 13.5649 37.5675 14.1654 37.3567 14.4513C37.0887 14.8159 37.2745 14.7981 37.4746 14.8088C37.7425 14.8231 38.0105 14.8588 38.2856 14.891C41.008 15.2055 43.9377 15.9276 46.1242 17.6147C46.1242 17.6147 46.1349 17.6219 46.1564 17.6398C46.3957 17.8221 46.6244 18.0222 46.8423 18.2295L46.8566 18.2438C46.8781 18.2653 46.9031 18.2903 46.9281 18.3153C47.3925 18.7907 47.9999 19.5307 48.5644 20.5673C48.568 20.578 48.5751 20.5923 48.5823 20.603C48.6037 20.6459 48.6251 20.6888 48.6466 20.7352C48.7859 21.0462 48.8467 21.3965 48.8467 21.7754V21.7826C48.8467 21.8469 48.8431 21.9113 48.8395 21.9792C48.3643 22.333 47.8499 22.6762 47.2996 23.005C47.2639 23.0301 47.2282 23.0515 47.1925 23.073C46.2207 23.652 45.281 24.1596 44.3914 24.61H44.3879C40.3542 26.6581 36.0705 27.7984 35.8132 27.8484C35.6525 27.8806 35.656 27.5911 35.631 27.3838C35.3917 24.7601 34.5128 22.2365 33.8054 19.7237C33.8054 19.7237 33.8054 19.7165 33.8018 19.713C31.3545 14.2333 30.6435 17.0428 32.6156 12.3674V12.3603C33.1444 10.7625 32.6871 9.11823 32.5335 7.58121C32.5335 7.57763 32.5335 7.57048 32.5335 7.56691C32.6728 6.15499 31.6403 4.67159 30.1219 4.66802C29.4144 4.55006 30.8435 5.56521 30.522 6.31585C30.5863 8.72146 33.0551 7.43465 32.4656 11.17C32.4513 11.2522 32.3405 11.2558 32.3191 11.1735C31.9975 9.8081 29.9968 9.00385 28.9321 9.87959C28.9607 10.0762 29.2537 9.94393 29.3966 9.98325C29.9718 9.99397 30.0968 10.069 30.2683 10.6338C30.4363 11.3666 31.258 12.421 32.0547 11.9278C32.0976 11.8992 32.1548 11.9206 32.169 11.9707L32.2762 12.4282C32.2941 12.5068 32.2869 12.5926 32.2441 12.6641C31.9261 13.2324 31.4759 15.0912 30.8007 14.5943C28.8071 10.9877 23.5408 9.26836 19.5108 9.25406H19.5001C17.6315 9.41491 17.1778 9.74733 17.1956 9.42921C17.0956 7.99585 17.0849 6.55533 17.1027 5.11482C17.1027 5.11125 17.1027 5.1041 17.1027 5.10053C17.7101 1.86921 18.8069 3.80657 17.3028 0.106994C17.2992 -0.053857 17.1492 -0.00381446 17.0849 0.0748238C16.356 0.689632 15.8166 1.68333 16.574 2.51976C16.8491 2.80572 17.3814 3.38121 16.9991 3.7887C16.4061 2.85219 15.3592 1.97644 14.0766 2.0944C13.5479 1.95499 11.6936 3.26325 12.3831 3.55993C12.4117 3.57065 12.4439 3.56708 12.4689 3.54921C13.4871 2.89508 14.4982 4.47142 15.5843 3.62785C17.778 2.95942 16.4096 6.17644 16.6704 7.23448C16.6704 7.62768 17.1456 8.53202 16.8133 8.76793C16.674 8.76436 16.5704 8.47125 16.5811 8.37474C16.6954 7.18444 15.7701 6.45525 14.684 6.24078C14.1088 6.17287 13.8015 5.40436 13.312 5.32572C13.2692 5.31857 13.2335 5.35789 13.2406 5.40078C13.455 6.66972 14.2124 8.86087 15.8666 8.68929C16.4239 8.53916 17.2671 9.55431 16.6812 9.78665C15.5021 10.0512 14.7197 10.2692 13.8908 10.8197C13.5443 10.9984 13.4371 10.977 12.9226 10.7911C12.5832 10.6695 12.1116 10.4336 11.0612 10.2692C9.92508 10.0047 8.85683 9.95108 7.74927 10.2442C7.23123 10.3693 6.29874 10.5337 5.83785 10.8947C4.96967 11.338 4.30871 12.4067 3.25475 12.1279C2.13648 11.9492 1.90068 13.2539 1.07895 13.6935C0.72167 13.8473 0.821707 14.1189 1.21114 14.0081C3.1833 13.9438 3.84783 12.396 2.98322 15.1698C2.98322 15.1805 2.97608 15.1912 2.96893 15.202C1.83637 16.7497 0.425131 15.4808 0.0464195 18.4905C-0.132218 18.8408 0.282221 19.0159 0.453713 18.6728C0.832425 17.8614 1.78635 17.9007 2.35799 17.3252C2.89033 16.9213 2.37585 16.0027 2.99037 15.849C3.03324 15.8382 3.07969 15.8668 3.0904 15.9097C3.41195 17.0893 2.69026 18.7586 4.07648 19.4735C4.4552 19.5843 4.45162 20.914 4.74816 20.4993C5.8843 17.3645 3.71564 18.2617 3.43696 16.8998C3.03681 15.0125 3.47983 13.1895 4.95895 11.9027C4.95895 11.9027 4.96253 11.9027 4.9661 11.8992C5.54846 11.4667 6.09152 10.9877 6.97399 10.7875C7.05259 10.7696 7.10261 10.8733 7.0383 10.9198C6.43093 11.363 5.845 11.8455 5.94861 12.7392C5.95575 13.1216 5.91288 13.4934 5.59848 13.7722C5.53774 13.8222 5.48058 13.8866 5.53774 13.9724C5.93789 14.3084 6.37376 13.6578 6.73819 13.5112C7.57064 13.0394 7.45988 11.9492 7.49204 11.1271C7.56349 9.79738 11.9687 10.5587 13.0655 11.1342C13.1155 11.1592 13.1191 11.2272 13.0727 11.2558C10.2609 13.1395 8.0208 15.9598 7.19907 19.2947C6.68817 21.561 6.29874 21.5395 5.94861 22.7119C5.84857 22.9693 5.80212 23.316 5.44128 23.3375C4.7303 23.4518 4.0479 23.0015 3.34407 23.2552C2.80101 23.4876 2.02572 23.8093 1.75777 24.2811C1.80779 24.4134 1.93283 24.4134 2.04359 24.3884C3.05825 24.1346 4.41947 24.8387 5.09829 23.7557C5.27693 23.3553 5.78783 23.6341 5.52702 23.9844C4.74102 28.2059 3.11899 25.3964 2.68311 27.4481C2.39372 28.3274 2.68311 28.1523 3.37622 27.945C4.22654 27.8627 4.37302 27.1872 4.7303 26.6153C4.79818 26.9334 4.80533 27.2515 4.67671 27.5446C4.36945 28.1201 4.8482 29.5106 4.13722 29.725C3.70135 29.7107 2.98679 29.8287 2.88676 30.3184C2.92249 30.6365 2.60808 30.9332 2.65453 31.2084C2.6581 31.2335 2.67597 31.2585 2.6974 31.2728C2.91891 31.4015 3.16901 31.0404 3.40481 31.019C3.86212 30.9797 4.08363 30.6079 4.35516 30.3684C4.4016 30.3255 4.48021 30.3684 4.48378 30.4292C4.72315 33.3817 4.10864 31.9126 2.78672 32.985C2.76886 32.9993 2.75814 33.0207 2.75457 33.0457C2.69383 33.4389 1.48981 34.6292 2.16506 34.4684C2.97965 34.0644 4.50164 34.0144 4.39089 32.8098C4.30514 32.4381 4.78032 32.4381 4.79104 32.7669C6.66673 38.0214 4.83391 33.9215 4.01932 37.6532C4.06577 38.1072 5.13759 37.26 5.43056 37.1742C5.75925 36.9776 6.0415 36.7203 6.02006 36.2806C5.99148 36.1519 6.10224 36.1055 6.19155 36.1984C7.84574 38.2394 6.07365 37.428 6.89896 38.8614C7.12762 39.1187 6.99185 39.3046 6.77749 39.5298C6.86323 39.6871 7.19907 39.6156 7.32054 39.5155C8.36379 38.8399 8.39952 37.6175 7.30625 37.042C7.30268 37.042 7.29553 37.0348 7.29196 37.0313C6.70603 36.3593 5.29122 34.8901 5.79498 34.0287C5.8057 34.0108 5.82356 33.9965 5.84142 33.9858C7.24194 33.3781 6.78106 33.4103 7.10975 32.0913C7.40629 31.1262 5.18404 32.749 5.45557 33.1601C5.48058 33.3781 5.77354 33.7785 5.53059 33.9072C4.7303 32.5882 4.83391 30.6723 4.82676 29.0673C4.82676 28.9994 4.91251 28.9672 4.95538 29.0244C5.29479 29.457 6.13439 30.4185 6.17012 29.893C6.1987 29.1603 6.27373 28.3024 5.34838 28.1844C4.5338 28.045 5.16975 27.012 5.17689 26.483C5.18404 26.4401 5.18761 26.3364 5.28765 26.3615C5.48415 27.0013 6.14511 27.1371 6.53097 27.5947C6.59528 27.6804 6.56312 27.8842 6.75248 27.8198C7.09546 27.6483 6.8275 27.2193 7.08117 26.9513C8.43882 33.589 17.1563 38.0714 22.7727 34.2217C22.8334 34.1788 22.8013 34.0823 22.7263 34.0859C19.2928 34.3397 15.3378 34.2718 12.4224 31.8411C-0.0250355 21.2643 14.6125 3.05236 27.1636 14.7838C27.1958 14.8124 27.1922 14.866 27.16 14.891C27.0064 15.0125 26.8456 15.177 26.7492 15.3521C26.7349 15.3807 26.7027 15.395 26.6706 15.3843C25.4237 14.9732 24.1018 16.1993 23.3872 15.6631C23.3729 15.6524 23.3658 15.6381 23.3586 15.6238C22.8692 14.5586 21.8545 15.1412 21.0221 14.8874C20.1253 14.7909 21.5544 16.0741 21.9903 15.9419C22.4547 16.0134 23.0621 15.7238 23.4801 15.9383C23.5373 15.9669 23.5408 16.0527 23.4801 16.0849C22.5905 16.6032 22.2011 17.0678 21.3865 17.6362C20.6719 18.5227 19.6072 17.2001 18.8891 18.1509C18.6355 18.419 18.2567 18.4762 17.9459 18.6478C17.903 18.6728 17.8959 18.7371 17.9316 18.7693C18.614 19.3734 19.7609 18.9802 20.3361 18.3439C20.4075 18.2581 20.5362 18.201 20.629 18.2975C19.4786 20.0239 18.1424 22.1615 16.3632 23.2767C15.963 23.5269 15.5057 23.6699 15.0341 23.6735C14.0623 23.6806 12.8404 23.3089 12.5939 22.4081C12.526 22.0471 13.1834 22.0149 13.3514 21.2357C13.4264 20.9104 13.63 20.2277 13.1298 20.4064C11.5221 21.225 11.5042 22.3473 12.7333 23.2695C12.8011 23.3196 13.0155 23.4947 13.0905 23.5448C13.1191 23.5662 13.137 23.6055 13.1191 23.6377C13.0262 23.8272 12.6225 23.8879 12.2509 23.795C11.7115 23.6699 10.361 25.4643 11.3292 25.3284C13.9516 24.6993 12.8011 23.3982 13.7908 23.9237C14.1731 24.0702 14.7197 24.0345 15.6736 23.9308C15.7129 23.9272 15.7558 23.9594 15.7522 24.0023C15.7129 24.2775 15.3985 24.5063 15.4771 24.8423C15.4057 25.1104 16.1131 26.9191 16.2167 26.122C16.4882 25.4035 16.8419 24.6243 16.256 23.9308C16.0166 23.6234 16.6168 23.4876 16.8098 23.3339C17.6529 22.7405 18.1889 22.1722 18.6748 21.4787C18.6962 21.4501 18.7391 21.468 18.7319 21.5038C17.753 25.979 21.5758 30.036 25.4487 26.0147C26.1132 25.1569 25.9667 26.7404 27.16 26.8118C27.4923 26.819 28.3069 26.8297 28.0925 26.4008C27.9032 26.0755 27.085 25.3177 26.3169 25.4571C26.2311 25.4786 25.9846 25.525 25.9489 25.4285C26.7599 24.7136 26.8564 23.5126 26.6706 22.5868C26.4776 22.0399 25.9489 23.1301 25.3844 23.7843C25.1021 24.1775 25.1021 24.7387 25.3844 25.2141C25.3915 25.2284 25.3987 25.2462 25.3951 25.2641C25.3558 25.7252 24.9807 26.0183 24.6234 26.365C23.8695 27.1014 22.5869 27.5053 21.5544 27.2872C21.2686 27.2265 20.5933 26.8762 20.3647 26.7118C21.2078 26.8333 22.444 26.9727 22.9942 25.9004C23.0192 25.8503 22.9835 25.7824 22.9263 25.7717C20.111 25.2641 21.3114 26.6045 20.161 26.4901C19.4286 25.786 19.0463 24.8566 18.9391 23.8844C18.8427 22.9979 18.8677 22.8263 18.8713 22.4796C18.8713 22.1972 19.0678 22.3795 19.0892 22.4188C19.1964 22.6333 19.1035 22.9371 19.3214 23.1301C19.7109 23.5341 20.4683 23.7593 20.9506 23.5519C20.9935 23.5341 21.0078 23.4769 20.9828 23.4411C20.8184 23.2195 20.4826 23.1087 20.3754 22.7334C19.9967 21.7218 18.7105 22.451 18.9749 21.7897C19.5572 20.2813 20.5612 18.2724 22.0081 17.5575C22.0617 17.5325 22.1296 17.579 22.1153 17.6362C22.0546 17.9078 21.7259 18.2474 21.926 18.5334C22.1367 18.7693 22.4369 20.0382 22.7477 19.6093C23.8481 17.6112 21.9367 17.5075 22.8227 16.8927C23.8481 16.1564 25.1057 15.4379 26.3562 15.5987C26.4098 15.6059 26.4169 15.681 26.3705 15.7024C25.781 15.949 25.1807 16.1385 25.1271 16.8855C25.0521 17.3216 24.9557 17.722 24.6448 18.0473C24.5412 18.1259 24.627 18.2188 24.7127 18.2653C27.7603 17.1679 25.8381 16.3065 27.5209 15.277C27.5495 15.2592 27.5923 15.2627 27.6174 15.2878C30.9793 18.7693 32.8514 24.0345 33.0444 28.6884C33.0444 28.7349 33.0551 28.7957 33.0336 28.835C33.0122 28.8743 32.955 28.8922 32.9122 28.9136C29.5395 30.6044 25.9667 33.0636 24.6913 36.7989C24.0875 38.3324 24.6091 40.8738 26.5241 40.8202C26.5777 40.8202 26.617 40.7594 26.5955 40.7094C24.5091 35.1868 28.2783 32.481 32.9015 30.3434C32.9479 30.322 33.0587 30.2791 33.1444 30.2398C33.3087 30.1611 33.3195 30.2219 33.3266 30.3255C33.3302 30.4042 33.3588 30.6651 33.3623 30.7938C33.4659 33.1958 33.4195 40.5664 33.4052 41.9318C33.4052 41.9998 33.4838 42.0319 33.5303 41.9819C35.7561 39.5084 38.9573 36.2627 41.2153 33.85H41.2188C42.9909 32.2486 44.7951 30.6258 46.4493 28.885C47.489 27.7912 48.4715 26.6546 49.3504 25.4428C49.4004 25.3892 50.115 24.1131 50.483 23.3196C50.4937 23.291 50.508 23.2624 50.5223 23.2338C50.8438 22.5261 51.0439 21.8827 51.1368 21.2929C51.1618 21.1499 51.1761 21.0033 51.1868 20.8639C51.1868 20.8461 51.194 20.8318 51.2082 20.8175C52.4337 19.6272 53.627 18.3153 54.9132 16.8176C54.9918 16.7211 55.0775 16.621 55.1633 16.521C56.7246 14.5514 57.2891 13.7007 57.5284 13.3039C57.6642 13.0787 57.6928 13.0001 57.7392 12.9501C57.8857 12.7249 57.9536 12.6963 57.1247 12.657H57.139ZM5.6485 24.2704C5.88787 23.5841 6.12724 22.7227 6.48452 22.1293C6.52382 22.065 6.62028 22.0864 6.62386 22.1615C6.68102 23.3804 6.60599 24.753 6.82036 25.9683C6.83108 26.0326 6.76677 26.0755 6.7096 26.0433C6.00934 25.618 5.2805 25.2998 5.6485 24.274V24.2704ZM48.6037 23.2302L48.6001 23.2338C48.593 23.2695 48.5823 23.3017 48.5715 23.3339C48.0285 25.0461 46.7923 26.9119 45.8634 28.0415C45.7348 28.1987 45.6169 28.3381 45.5026 28.4632C43.7948 30.3827 41.744 32.0949 40.0327 33.875C33.5517 40.1553 36.8065 37.4495 35.9419 29.9431C35.9276 29.7679 35.8311 29.4033 35.9705 29.3426C36.2456 29.221 36.4671 29.1174 36.785 28.9923H36.7922C39.3145 28.1666 41.1366 27.6411 42.1549 27.18C44.7701 25.8432 46.8209 24.5385 48.643 23.0872C48.6323 23.1337 48.618 23.1838 48.6037 23.2302ZM54.831 14.8517C54.831 14.8517 54.831 14.8553 54.8274 14.8553C54.4987 15.2949 53.6056 17.3931 51.4333 19.6915C51.3547 19.7773 51.2725 19.8631 51.1832 19.9489C51.1832 19.9238 51.1725 19.881 51.1654 19.8309C51.1582 19.7952 51.1547 19.7594 51.1475 19.7237C51.1368 19.6486 51.1225 19.5807 51.1154 19.545C51.0046 19.1446 50.7974 18.5191 49.9721 17.3359V17.3288C49.5791 16.8462 49.1146 16.3958 48.6144 15.9419C48.6109 15.9383 48.6073 15.9347 48.6037 15.9312C48.0571 15.513 47.3711 15.109 46.4994 14.7444C46.1349 14.6015 45.8813 14.4692 45.7241 14.4227C44.8988 14.1761 45.8598 14.244 47.8856 14.2547C49.9113 14.2655 51.344 14.3048 51.4833 14.3012C51.5655 14.3012 54.9418 14.2941 55.0239 14.2941C55.224 14.2941 55.2562 14.2476 54.8346 14.8517H54.831Z" fill="#E8F2ED"/>
</g>
<defs>
<clipPath id="clip0_112_658">
<rect width="106" height="42" fill="white"/>
</clipPath>
</defs>
</svg>
